<svg xmlns="http://www.w3.org/2000/svg" class="lf" data-friend="خ" viewBox="-6 -6 112 112" width="240" height="240" aria-hidden="true"><g class="lf-dress lf-back"><circle cx="34" cy="56" r="10" fill="#fffdf7" stroke="#4a3620" stroke-width="2.4" stroke-linejoin="round" stroke-linecap="round"/><circle cx="28" cy="70" r="10" fill="#fffdf7" stroke="#4a3620" stroke-width="2.4" stroke-linejoin="round" stroke-linecap="round"/><circle cx="38" cy="82" r="10" fill="#fffdf7" stroke="#4a3620" stroke-width="2.4" stroke-linejoin="round" stroke-linecap="round"/><circle cx="54" cy="86" r="10" fill="#fffdf7" stroke="#4a3620" stroke-width="2.4" stroke-linejoin="round" stroke-linecap="round"/><circle cx="70" cy="85" r="10" fill="#fffdf7" stroke="#4a3620" stroke-width="2.4" stroke-linejoin="round" stroke-linecap="round"/><circle cx="46" cy="64" r="10" fill="#fffdf7" stroke="#4a3620" stroke-width="2.4" stroke-linejoin="round" stroke-linecap="round"/><circle cx="58" cy="74" r="10" fill="#fffdf7" stroke="#4a3620" stroke-width="2.4" stroke-linejoin="round" stroke-linecap="round"/></g><g class="lf-body"><path class="lf-ink" d="M28 26Q52 18 72 28L38 50Q18 64 32 80Q50 92 80 82" fill="none" stroke="#4a3620" stroke-width="14" stroke-linecap="round" stroke-linejoin="round" data-ribbon=""/><path class="lf-fill" d="M28 26Q52 18 72 28L38 50Q18 64 32 80Q50 92 80 82" fill="none" stroke="#c9bda4" stroke-width="8" stroke-linecap="round" stroke-linejoin="round" data-ribbon=""/><circle cx="50" cy="14" r="6.4" fill="#4a3620"/><circle class="lf-fill-dot" cx="50" cy="14" r="3.6" fill="#fffdf7"/></g><g class="lf-dress lf-front"><ellipse cx="22" cy="28" rx="8" ry="9" fill="#a89478" stroke="#4a3620" stroke-width="3" stroke-linejoin="round" stroke-linecap="round"/><circle cx="19" cy="26" r="1.8" fill="#fffdf7"/><circle cx="26" cy="26" r="1.8" fill="#fffdf7"/><path d="M14 24Q8 22 10 28M30 24Q36 22 34 28" fill="none" stroke="#4a3620" stroke-width="2.4" stroke-linejoin="round" stroke-linecap="round"/><path d="M40 90L40 99" fill="none" stroke="#4a3620" stroke-width="3" stroke-linecap="round" stroke-linejoin="round"/><path d="M64 92L64 99" fill="none" stroke="#4a3620" stroke-width="3" stroke-linecap="round" stroke-linejoin="round"/></g></svg>