<svg xmlns="http://www.w3.org/2000/svg" class="lf" data-friend="ن" viewBox="-6 -6 112 112" width="240" height="240" aria-hidden="true"><g class="lf-dress lf-back"><path d="M52 78V99" fill="none" stroke="#4e9677" stroke-width="4" stroke-linecap="round" stroke-linejoin="round"/><path d="M22 42Q14 30 26 28Q30 36 26 44Z" fill="#ffa798" stroke="#4a3620" stroke-width="2.4" stroke-linejoin="round" stroke-linecap="round"/><path d="M82 40Q90 28 78 26Q74 34 78 42Z" fill="#ffa798" stroke="#4a3620" stroke-width="2.4" stroke-linejoin="round" stroke-linecap="round"/></g><g class="lf-body"><path class="lf-ink" d="M82 40Q86 74 52 76Q20 74 22 42" fill="none" stroke="#4a3620" stroke-width="14" stroke-linecap="round" stroke-linejoin="round" data-ribbon=""/><path class="lf-fill" d="M82 40Q86 74 52 76Q20 74 22 42" fill="none" stroke="#ee806f" stroke-width="8" stroke-linecap="round" stroke-linejoin="round" data-ribbon=""/><circle cx="52" cy="30" r="6.4" fill="#4a3620"/><circle class="lf-fill-dot" cx="52" cy="30" r="3.6" fill="#f3c955"/></g><g class="lf-dress lf-front"><ellipse cx="48" cy="23" rx="5" ry="3.6" fill="#ccfbef" stroke="#4a3620" stroke-width="1.6" stroke-linejoin="round" stroke-linecap="round"/><ellipse cx="56" cy="23" rx="5" ry="3.6" fill="#ccfbef" stroke="#4a3620" stroke-width="1.6" stroke-linejoin="round" stroke-linecap="round"/><path d="M51 27v6M54 27v6" fill="none" stroke="#4a3620" stroke-width="1.6" stroke-linecap="round" stroke-linejoin="round"/><path d="M58 32q10 4 15-6" fill="none" stroke="#4a3620" stroke-width="1.6" stroke-linecap="round" stroke-linejoin="round"/></g></svg>