<svg xmlns="http://www.w3.org/2000/svg" class="lf" data-friend="ث" viewBox="-6 -6 112 112" width="240" height="240" aria-hidden="true"><g class="lf-dress lf-back"></g><g class="lf-body"><path class="lf-ink" d="M84 46Q86 68 66 70L34 70Q14 68 16 46" fill="none" stroke="#4a3620" stroke-width="14" stroke-linecap="round" stroke-linejoin="round" data-ribbon=""/><path class="lf-fill" d="M84 46Q86 68 66 70L34 70Q14 68 16 46" fill="none" stroke="#ee806f" stroke-width="8" stroke-linecap="round" stroke-linejoin="round" data-ribbon=""/><circle cx="50" cy="22" r="6.4" fill="#4a3620"/><circle class="lf-fill-dot" cx="50" cy="22" r="3.6" fill="#f3c955"/><circle cx="60" cy="34" r="6.4" fill="#4a3620"/><circle class="lf-fill-dot" cx="60" cy="34" r="3.6" fill="#f3c955"/><circle cx="40" cy="34" r="6.4" fill="#4a3620"/><circle class="lf-fill-dot" cx="40" cy="34" r="3.6" fill="#f3c955"/></g><g class="lf-dress lf-front"><path d="M78 50Q76 36 86 34L88 25L92 34Q99 38 97 48Q90 55 78 50Z" fill="#ee806f" stroke="#4a3620" stroke-width="3" stroke-linejoin="round" stroke-linecap="round"/><path d="M84 43q3 2 6 0" fill="none" stroke="#4a3620" stroke-width="1.6" stroke-linecap="round" stroke-linejoin="round"/><circle cx="97" cy="47" r="1.6" fill="#4a3620"/><path d="M17 47Q3 36 10 25Q21 30 21 45Z" fill="#ee806f" stroke="#4a3620" stroke-width="3" stroke-linejoin="round" stroke-linecap="round"/><path d="M10 25Q8 32 13 34Q16 30 10 25Z" fill="#fffdf7" stroke="#4a3620" stroke-width="1.6" stroke-linejoin="round" stroke-linecap="round"/><path d="M36 62Q50 66 64 62" fill="none" stroke="#ffa798" stroke-width="3" stroke-linecap="round" stroke-linejoin="round"/></g></svg>