<svg xmlns="http://www.w3.org/2000/svg" viewBox="0 0 64 64" role="img" aria-label="Qandeel lantern">
  <path d="M32 3v6" stroke="#4a3620" stroke-width="3" stroke-linecap="round"/>
  <circle cx="32" cy="3.5" r="2.5" fill="none" stroke="#4a3620" stroke-width="2.4"/>
  <path d="M20 17q12-9 24 0z" fill="#e8743c" stroke="#4a3620" stroke-width="3" stroke-linejoin="round"/>
  <path d="M21 18h22l-2 4H23z" fill="#c69434" stroke="#4a3620" stroke-width="3" stroke-linejoin="round"/>
  <path d="M23 22q-6 13 0 26h18q6-13 0-26z" fill="#ffe49a" stroke="#4a3620" stroke-width="3" stroke-linejoin="round"/>
  <path d="M32 26q6 7 0 15q-6-8 0-15z" fill="#e8743c"/>
  <path d="M32 31q2.6 3.6 0 7q-2.6-3.4 0-7z" fill="#fffaf0"/>
  <path d="M27 23.5q-4 11.5 0 23M37 23.5q4 11.5 0 23" fill="none" stroke="#c69434" stroke-width="1.6" stroke-linecap="round"/>
  <path d="M22 48h20l-3 5H25z" fill="#c69434" stroke="#4a3620" stroke-width="3" stroke-linejoin="round"/>
  <path d="M29 53v4M35 53v4M27 59h10" stroke="#4a3620" stroke-width="3" stroke-linecap="round"/>
</svg>
